<?xml version="1.0" encoding="utf-8"?>
<!-- Generator: Adobe Illustrator 17.1.0, SVG Export Plug-In . SVG Version: 6.00 Build 0)  -->
<!DOCTYPE svg PUBLIC "-//W3C//DTD SVG 1.1//EN" "http://www.w3.org/Graphics/SVG/1.1/DTD/svg11.dtd">
<svg version="1.1" id="Layer_1" xmlns="http://www.w3.org/2000/svg" xmlns:xlink="http://www.w3.org/1999/xlink" x="0px" y="0px"
	 viewBox="3.1 18.5 93.3 62.4" enable-background="new 3.1 18.5 93.3 62.4" xml:space="preserve">
<path d="M46.9,18.5c-17.2,0-31.2,14-31.2,31.2s14,31.2,31.2,31.2s31.2-14,31.2-31.2S64.1,18.5,46.9,18.5z M46.9,74.8
	c-13.9,0-25.2-11.3-25.2-25.2c0-13.9,11.3-25.2,25.2-25.2S72,35.8,72,49.7C72,63.5,60.7,74.8,46.9,74.8z"/>
<path fill="none" d="M25.8,25.7c-0.2,0.2-0.5,0.5-0.7,0.7v5.3h8.7v-6L25.8,25.7L25.8,25.7z"/>
<rect id="_x3C_Slice_x3E__1_" x="30.4" y="35.7" fill="none" width="2" height="1.3"/>
<path d="M80.8,42.6c0.6,2.2,0.5,4.6,0.3,7.1c8.2,5.2,9.6,8.4,9.5,8.9c0,0-1.6,1.9-10.5,1.2C75.5,59.5,70,58.5,64,57.1l0,0.1
	c0,2-0.5,4-1.5,5.6c6.3,1.5,12.2,2.5,17.1,2.9c9.6,0.7,15-1,16.5-5.1C98.2,54.8,90.7,48.3,80.8,42.6z"/>
<path d="M43,50.6c-9.5-3.6-18-7.7-24.4-11.8c-8.3-5.3-9.7-8.4-9.6-9c0,0,1.3-2,10.3-1.3c1.2-2.2,3.1-4,5.1-5.4
	c-1.3-0.1-3.1-0.2-4.4-0.3c-9.6-0.7-15,1-16.5,5.1c-1.6,4.4,2.1,9.5,11.3,15.4c6.8,4.4,16,8.9,26.2,12.8C41.2,54,41.9,52.2,43,50.6z
	"/>
<circle cx="52.3" cy="57.3" r="7.8"/>
</svg>
